Coordinates
version=1
nRows=20
nColumns=34
inDegrees=yes

Units are S.I. units (second, meters, Newtons, ...)
If the header above contains a line with 'inDegrees', this indicates whether rotational values are in degrees (yes) or radians (no).

endheader
time	pelvis_tilt	pelvis_list	pelvis_rotation	pelvis_tx	pelvis_ty	pelvis_tz	hip_flexion_r	hip_adduction_r	hip_rotation_r	knee_angle_r	ankle_angle_r	subtalar_angle_r	mtp_angle_r	hip_flexion_l	hip_adduction_l	hip_rotation_l	knee_angle_l	ankle_angle_l	subtalar_angle_l	mtp_angle_l	lumbar_extension	lumbar_bending	lumbar_rotation	arm_flex_r	arm_add_r	arm_rot_r	elbow_flex_r	pro_sup_r	arm_flex_l	arm_add_l	arm_rot_l	elbow_flex_l	pro_sup_l
      3.83333330	     -3.48675033	      0.24606205	      9.87494574	      0.48923403	      0.63201159	      0.07180645	     58.80005544	    -16.66374546	     -1.35692830	     96.83774392	     38.92856277	    -11.05569654	      0.00000000	     54.02058592	     -9.04854265	     -0.44185012	     93.61283628	     31.45449965	    -27.91842908	      0.00000000	    -42.36521058	      6.39763911	      6.55255213	    -98.95381856	   -158.98196370	   -151.94565044	     33.10114189	     57.44000923	     50.56267818	    -10.78061816	     28.37499952	     55.78047587	     65.02479493
      3.85000000	     -3.74327394	     -0.12943330	     10.04286884	      0.47932864	      0.60315081	      0.08341009	     63.61638547	    -17.32935538	     -1.13132097	    102.87610424	     41.46741314	     -7.72696216	      0.00000000	     59.82734169	    -11.44055528	      0.58840489	    100.30157727	     33.00092774	    -25.20067541	      0.00000000	    -46.24962806	      5.88517599	      5.13946328	    -94.20532944	   -162.61552700	   -153.70248285	     39.86356233	     58.84516307	     57.53951605	    -12.05082539	     25.83025294	     60.29360861	     64.85097288
      3.86666670	     -3.86332374	     -0.31263425	     10.38969565	      0.46998255	      0.57679289	      0.08543360	     67.77576701	    -18.38739096	     -0.73680253	    108.06020393	     43.14436508	     -5.33730780	      0.00000000	     64.70442009	    -12.89843480	      1.94010359	    105.78348150	     34.15396721	    -22.90416898	      0.00000000	    -49.80754209	      5.50999962	      4.12637856	    -90.36720518	   -165.79080020	   -157.50261750	     47.46636795	     61.16747415	     64.63114769	    -12.18379273	     23.60025396	     63.96075448	     65.00374659
      3.88333330	     -4.32815076	     -0.49215847	     10.66777117	      0.45927600	      0.53617308	      0.07966777	     73.09616361	    -20.28292285	      0.48760681	    113.78710328	     44.57294920	     -2.99464160	      0.00000000	     70.77481441	    -13.36303133	      3.43716623	    112.21002883	     35.87021205	    -21.18876228	      0.00000000	    -51.85756966	      5.54977686	      3.75908493	    -86.27099958	   -167.36019582	   -158.61026104	     54.35951565	     63.16069313	     71.41275621	    -11.12139777	     22.29777410	     67.03338318	     65.38825977
      3.90000000	     -5.10593695	     -1.09028611	     11.49309293	      0.44459016	      0.48559761	      0.08705502	     79.91714409	    -21.84306867	      2.09365492	    120.09335921	     46.49827936	     -1.01098005	      0.00000000	     78.93540814	    -13.21734812	      6.31570179	    119.72507131	     37.67657617	    -19.12726990	      0.00000000	    -52.75779269	      5.66757762	      4.00012066	    -81.76382683	   -168.53148420	   -160.74463850	     61.81959650	     67.43291889	     79.55838909	     -9.73919913	     22.35838693	     68.37099662	     66.58838081
      3.91666670	     -5.31153828	     -1.82392437	     12.51349560	      0.43318539	      0.45480471	      0.08763447	     85.49666493	    -23.02873639	      3.78462993	    125.64468670	     48.40919247	      0.63040708	      0.00000000	     86.30427697	    -12.79698198	      9.53983117	    126.36203089	     38.66164287	    -15.86664124	      0.00000000	    -53.89508322	      6.31797032	      4.43948777	    -77.54029802	   -169.46853641	   -161.69994722	     66.60052387	     71.27702240	     86.83403143	     -8.05824554	     22.43967728	     68.81595716	     67.62244324
      3.93333330	     -5.56306726	     -2.56753309	     13.05124067	      0.43690650	      0.42164649	      0.08355483	     90.36094053	    -24.00377809	      6.07202355	    130.96870232	     50.00000000	      2.38954516	      0.00000000	     92.75092274	    -12.79825621	     12.97801279	    132.34768220	     39.73604039	    -12.42985119	      0.00000000	    -53.89087398	      6.89674343	      4.65366142	    -74.92164915	   -170.41921351	   -161.85632736	     69.71581192	     72.41047447	     90.53384276	     -6.58595888	     21.17998650	     70.80913797	     67.90959395
      3.95000000	     -5.64665188	     -3.00411973	     13.31891865	      0.43778205	      0.40781682	      0.08537919	     93.58549003	    -24.45125106	      7.88406989	    134.42493586	     50.00000000	      2.87441033	      0.00000000	     97.01952033	    -13.07173192	     15.44224287	    136.35665281	     39.84046150	     -9.88307083	      0.00000000	    -54.23596938	      6.77355219	      4.48657795	    -74.78250353	   -171.33480858	   -163.73481129	     73.10365070	     75.42142412	     92.67108234	     -4.89441447	     19.37475418	     72.87014979	     68.90178147
      3.96666670	     -5.48639715	     -3.26228659	     13.53655265	      0.43932678	      0.40316716	      0.08472207	     95.10567122	    -24.72323008	      8.94557858	    136.46738955	     50.00000000	      3.30723233	      0.00000000	     98.96385232	    -13.55096161	     17.04218629	    138.41324344	     40.00588657	     -6.87861913	      0.00000000	    -54.87848882	      6.71666004	      3.89259064	    -75.48498110	   -172.40248837	   -164.68318545	     74.86544636	     76.12161933	     93.34667821	     -3.77074940	     18.21566390	     74.67045802	     69.08912902
      3.98333330	     -5.39191837	     -3.59669043	     13.51023652	      0.43447376	      0.38801935	      0.08261235	     96.58002463	    -24.86694519	      9.48234601	    137.84351432	     49.35301809	      2.96653027	      0.00000000	    100.74330188	    -13.59844661	     18.17689974	    139.97438329	     39.54514247	     -6.09573856	      0.00000000	    -55.01547759	      6.64445252	      3.44024231	    -75.80396469	   -173.30373218	   -165.89327198	     74.94305119	     79.84508663	     93.21954803	     -2.39521639	     16.48835630	     76.64203770	     70.13387205
      4.00000000	     -5.59803254	     -3.72077891	     13.19152991	      0.44406995	      0.39541905	      0.08550819	     96.92459837	    -24.17263760	      9.43048577	    137.98941206	     48.36293978	      1.75482405	      0.00000000	    101.01474426	    -14.49623997	     18.70318791	    140.00000000	     38.64259301	     -5.59368242	      0.00000000	    -54.91334908	      5.86761612	      3.11899398	    -77.70985813	   -173.44847894	   -166.05265986	     74.96835886	     80.24750181	     91.92973886	     -1.64486678	     16.54659061	     78.15685550	     70.17840642
      4.01666670	     -6.01213525	     -3.93515217	     12.70678561	      0.44611025	      0.40576807	      0.08939194	     96.42808745	    -22.94590478	      8.13750021	    136.98347093	     46.98597138	     -0.38535781	      0.00000000	    100.42334381	    -15.50372584	     18.58123325	    138.92630357	     37.77747483	     -5.56868559	      0.00000000	    -54.27412149	      5.28509693	      2.85512143	    -79.92158921	   -174.03119070	   -166.41437884	     73.21964441	     81.53988544	     88.88800360	     -1.39487482	     15.79588787	     79.96021288	     69.93990854
      4.03333330	     -6.08517286	     -3.72875056	     12.16169273	      0.43519018	      0.41598257	      0.09354096	     95.52440463	    -21.24658812	      6.70160198	    134.95308848	     44.58158395	     -3.16578766	      0.00000000	     98.84798659	    -16.02017028	     17.19515513	    136.79088148	     36.43229811	     -6.98501409	      0.00000000	    -54.19855529	      3.97672269	      2.99885087	    -80.32370553	   -173.36461297	   -166.09264837	     68.77448252	     81.78484923	     87.51106756	     -0.72818265	     16.20374583	     78.41419739	     69.64578796
      4.05000000	     -6.25040980	     -3.78762962	     11.91028149	      0.43974893	      0.43964277	      0.08912484	     93.60080272	    -19.99944703	      4.87192551	    132.15546249	     43.00343805	     -4.75582041	      0.00000000	     96.45473028	    -16.19167308	     15.47958797	    133.67369899	     34.77899163	     -9.01255461	      0.00000000	    -53.90857796	      3.53934539	      2.94925221	    -81.50943858	   -172.78952747	   -164.75598579	     63.17377171	     82.04771137	     85.33987187	     -0.85370623	     16.37862564	     75.84116423	     68.71742150
      4.06666670	     -5.92693814	     -3.45561348	     11.65701249	      0.44337162	      0.47409351	      0.09552059	     90.26112440	    -18.58621082	      2.90342998	    128.42900006	     40.39607086	     -7.26431398	      0.00000000	     92.36150234	    -17.12381603	     13.20634264	    129.17770962	     32.71882826	    -10.27832375	      0.00000000	    -54.77681432	      2.54697990	      3.08497696	    -83.23009478	   -171.85092644	   -163.73684029	     57.34774431	     82.05785411	     83.43619792	     -1.36696375	     16.70555427	     72.94503599	     67.33129808
      4.08333330	     -5.42475939	     -2.78658112	     11.42141519	      0.44592629	      0.49845788	      0.09078298	     86.22168837	    -17.45257200	      1.74134115	    124.46887898	     38.33694180	     -9.35370909	      0.00000000	     87.52642471	    -17.59603240	     10.30553742	    124.68746827	     30.71239221	    -12.37375684	      0.00000000	    -55.61716242	      1.66111071	      3.10042303	    -85.19544952	   -170.40319791	   -162.27950101	     51.47648732	     81.67822311	     81.08861895	     -2.24356796	     17.82436183	     69.97485449	     64.99984841
      4.10000000	     -5.50627180	     -2.19966380	     11.48506571	      0.44360995	      0.52203645	      0.08760022	     82.54763159	    -16.63141504	      1.05844774	    119.76165180	     36.47889935	    -11.55775389	      0.00000000	     82.90757372	    -17.11972473	      7.17491024	    119.60795823	     29.18763403	    -15.20126500	      0.00000000	    -55.62727108	      1.07651409	      3.16750549	    -87.69521674	   -168.39195615	   -161.16582541	     46.74904102	     81.15041386	     78.35227990	     -2.97947921	     18.14377998	     66.92828314	     63.13268518
      4.11666670	     -5.66701109	     -1.55992474	     11.30055685	      0.45018492	      0.54899069	      0.09393532	     78.67049153	    -15.39212246	      0.70353243	    114.79492903	     35.33150588	    -13.27118677	      0.00000000	     77.78433384	    -17.09409501	      4.38658956	    113.94143798	     27.82632982	    -17.37641145	      0.00000000	    -55.24648568	      0.02982385	      3.48703095	    -91.17312909	   -166.53077768	   -159.95338594	     42.23691935	     79.97257101	     74.98944131	     -4.46534782	     19.07232741	     64.39586062	     59.78907372
      4.13333330	     -5.70050529	     -0.86379684	     11.15566552	      0.44697325	      0.56689269	      0.09895172	     75.47249277	    -14.46179707	      0.56826073	    110.57784823	     34.35923798	    -14.72142186	      0.00000000	     73.31586628	    -16.81068238	      2.01163258	    109.06020476	     27.06557094	    -18.50556107	      0.00000000	    -54.70831641	     -1.01059337	      3.66315339	    -94.30069415	   -164.71028932	   -157.69883069	     38.31803619	     76.94318344	     72.40403233	     -7.08161797	     20.67840352	     61.88810922	     53.16637642
      4.15000000	     -5.87306274	     -0.64917265	     11.06609610	      0.43897422	      0.58840104	      0.10588997	     72.77803723	    -13.25729618	     -0.08871734	    106.27662071	     32.84198110	    -16.30538198	      0.00000000	     69.61142788	    -16.48399488	      0.29467781	    104.18417585	     25.29959407	    -20.58056190	      0.00000000	    -53.85521015	     -1.90484016	      4.19890343	    -97.55586255	   -163.28703643	   -157.44648019	     34.40683391	     76.59903422	     70.40745525	     -9.67664038	     21.00436748	     58.72456184	     52.65720631
